<svg width="116" height="29" viewBox="0 0 116 29" fill="none" xmlns="http://www.w3.org/2000/svg">
<path d="M15.2661 5.5501C15.2661 6.08107 15.1946 6.61205 15.0517 7.14302C14.9291 7.67399 14.7147 8.16412 14.4084 8.6134C14.102 9.04226 13.7038 9.43028 13.2137 9.77745C12.7236 10.1042 12.1313 10.3493 11.437 10.5126V10.6964C12.0496 10.7985 12.6317 10.9721 13.1831 11.2172C13.7345 11.4623 14.2144 11.7992 14.6228 12.2281C15.0312 12.6569 15.3478 13.1777 15.5724 13.7904C15.8175 14.403 15.94 15.128 15.94 15.9653C15.94 17.0681 15.7052 18.0279 15.2355 18.8448C14.7658 19.6413 14.1327 20.2948 13.3362 20.8053C12.5602 21.3159 11.6718 21.6937 10.6712 21.9387C9.67048 22.1838 8.63917 22.3063 7.57723 22.3063C7.23005 22.3063 6.78077 22.3063 6.22938 22.3063C5.69841 22.3063 5.11638 22.2859 4.4833 22.2451C3.87064 22.2246 3.23756 22.1838 2.58406 22.1225C1.95097 22.0613 1.36895 21.9694 0.837977 21.8468V0.710096C1.22599 0.64883 1.66507 0.587565 2.15519 0.526298C2.66574 0.465032 3.20693 0.413977 3.77874 0.373134C4.35056 0.33229 4.93258 0.301657 5.52482 0.281234C6.13748 0.260813 6.73993 0.250602 7.33216 0.250602C8.33284 0.250602 9.30288 0.33229 10.2423 0.495666C11.2021 0.638619 12.0496 0.904104 12.7848 1.29212C13.5404 1.68014 14.1429 2.22132 14.5922 2.91567C15.0415 3.61002 15.2661 4.48816 15.2661 5.5501ZM7.60786 18.8448C8.11841 18.8448 8.60854 18.7835 9.07824 18.661C9.56837 18.5385 9.99723 18.3547 10.3648 18.1096C10.7324 17.8441 11.0285 17.5174 11.2532 17.1294C11.4778 16.7413 11.5901 16.2818 11.5901 15.7509C11.5901 15.077 11.4574 14.546 11.1919 14.158C10.9264 13.7699 10.5793 13.4738 10.1504 13.2696C9.72153 13.045 9.24162 12.902 8.71065 12.8407C8.17968 12.7795 7.6487 12.7488 7.11773 12.7488H4.88153V18.661C4.98364 18.7019 5.14701 18.7325 5.37165 18.7529C5.5963 18.7733 5.83115 18.7938 6.07621 18.8142C6.3417 18.8142 6.60718 18.8244 6.87267 18.8448C7.15858 18.8448 7.40364 18.8448 7.60786 18.8448ZM6.22938 9.56302C6.51528 9.56302 6.84204 9.55281 7.20963 9.53239C7.59765 9.51197 7.91419 9.48133 8.15925 9.44049C8.93529 9.19542 9.599 8.82783 10.1504 8.3377C10.7222 7.84757 11.0081 7.20428 11.0081 6.40783C11.0081 5.87685 10.906 5.43778 10.7018 5.09061C10.4976 4.74344 10.2219 4.46774 9.8747 4.26352C9.54795 4.0593 9.17014 3.91634 8.74128 3.83466C8.31242 3.75297 7.86314 3.71213 7.39343 3.71213C6.86246 3.71213 6.37233 3.72234 5.92305 3.74276C5.47376 3.76318 5.12659 3.79381 4.88153 3.83466V9.56302H6.22938ZM22.9495 16.8537C22.9495 17.5684 23.0414 18.0892 23.2252 18.4159C23.409 18.7427 23.7051 18.9061 24.1135 18.9061C24.3586 18.9061 24.5934 18.8856 24.8181 18.8448C25.0631 18.804 25.3593 18.7121 25.7064 18.5691L26.1353 21.6937C25.8085 21.857 25.3082 22.0204 24.6343 22.1838C23.9604 22.3472 23.266 22.4289 22.5512 22.4289C21.3872 22.4289 20.4988 22.1634 19.8862 21.6324C19.2735 21.081 18.9672 20.1824 18.9672 18.9367V0.556931H22.9495V16.8537ZM27.1139 14.3418C27.1139 11.7482 27.747 9.75703 29.0131 8.36833C30.2793 6.95922 32.056 6.25466 34.3433 6.25466C35.5686 6.25466 36.6305 6.44867 37.5291 6.83669C38.4276 7.2247 39.173 7.7761 39.7653 8.49087C40.3575 9.18521 40.7966 10.0327 41.0825 11.0334C41.3888 12.0341 41.542 13.1369 41.542 14.3418C41.542 16.9354 40.9089 18.9367 39.6428 20.3458C38.397 21.7345 36.6305 22.4289 34.3433 22.4289C33.1179 22.4289 32.056 22.2349 31.1574 21.8468C30.2589 21.4588 29.5032 20.9176 28.8906 20.2233C28.2983 19.5085 27.8491 18.6508 27.5427 17.6501C27.2568 16.6494 27.1139 15.5467 27.1139 14.3418ZM31.2187 14.3418C31.2187 15.0157 31.28 15.6386 31.4025 16.2104C31.525 16.7822 31.7088 17.2825 31.9539 17.7114C32.1989 18.1402 32.5155 18.4772 32.9035 18.7223C33.3119 18.9469 33.7919 19.0592 34.3433 19.0592C35.3848 19.0592 36.1608 18.6814 36.6714 17.9258C37.1819 17.1702 37.4372 15.9755 37.4372 14.3418C37.4372 12.9326 37.2023 11.7992 36.7326 10.9415C36.2629 10.0634 35.4665 9.62429 34.3433 9.62429C33.363 9.62429 32.5972 9.99188 32.0458 10.7271C31.4944 11.4623 31.2187 12.6672 31.2187 14.3418ZM57.2601 22C57.2601 24.226 56.6576 25.8598 55.4527 26.9013C54.2478 27.9632 52.563 28.4942 50.3983 28.4942C48.9279 28.4942 47.7638 28.3921 46.9061 28.1879C46.0688 27.9836 45.4357 27.7692 45.0069 27.5446L45.834 24.3894C46.3037 24.5732 46.8448 24.757 47.4575 24.9408C48.0906 25.1246 48.8666 25.2165 49.7856 25.2165C51.1743 25.2165 52.1137 24.9101 52.6038 24.2975C53.1144 23.7052 53.3697 22.8679 53.3697 21.7856V20.8053H53.2471C52.5324 21.7651 51.2662 22.2451 49.4486 22.2451C47.4677 22.2451 45.9871 21.6324 45.0069 20.4071C44.047 19.1818 43.5671 17.2621 43.5671 14.6481C43.5671 11.9115 44.2206 9.83872 45.5276 8.4296C46.8346 7.02048 48.7339 6.31593 51.2254 6.31593C52.5324 6.31593 53.6964 6.40783 54.7175 6.59162C55.759 6.77542 56.6065 6.98985 57.2601 7.23492V22ZM50.5208 19.0592C51.2968 19.0592 51.8891 18.8856 52.2975 18.5385C52.7264 18.1913 53.0531 17.6705 53.2778 16.9762V10.0838C52.6447 9.81829 51.8584 9.68555 50.919 9.68555C49.8979 9.68555 49.1015 10.0736 48.5297 10.8496C47.9578 11.6052 47.6719 12.8203 47.6719 14.4949C47.6719 15.9857 47.917 17.1191 48.4071 17.8952C48.8973 18.6712 49.6018 19.0592 50.5208 19.0592ZM73.6834 22C73.6834 24.226 73.0809 25.8598 71.876 26.9013C70.6711 27.9632 68.9863 28.4942 66.8216 28.4942C65.3512 28.4942 64.1872 28.3921 63.3294 28.1879C62.4921 27.9836 61.8591 27.7692 61.4302 27.5446L62.2573 24.3894C62.727 24.5732 63.2682 24.757 63.8808 24.9408C64.5139 25.1246 65.29 25.2165 66.2089 25.2165C67.5976 25.2165 68.537 24.9101 69.0272 24.2975C69.5377 23.7052 69.793 22.8679 69.793 21.7856V20.8053H69.6705C68.9557 21.7651 67.6895 22.2451 65.872 22.2451C63.891 22.2451 62.4105 21.6324 61.4302 20.4071C60.4704 19.1818 59.9905 17.2621 59.9905 14.6481C59.9905 11.9115 60.644 9.83872 61.951 8.4296C63.258 7.02048 65.1572 6.31593 67.6487 6.31593C68.9557 6.31593 70.1197 6.40783 71.1408 6.59162C72.1824 6.77542 73.0299 6.98985 73.6834 7.23492V22ZM66.9441 19.0592C67.7202 19.0592 68.3124 18.8856 68.7208 18.5385C69.1497 18.1913 69.4765 17.6705 69.7011 16.9762V10.0838C69.068 9.81829 68.2818 9.68555 67.3424 9.68555C66.3213 9.68555 65.5248 10.0736 64.953 10.8496C64.3812 11.6052 64.0953 12.8203 64.0953 14.4949C64.0953 15.9857 64.3403 17.1191 64.8305 17.8952C65.3206 18.6712 66.0251 19.0592 66.9441 19.0592ZM77.4859 6.68352H81.4682V22H77.4859V6.68352ZM76.9039 2.36428C76.9039 1.77204 77.1183 1.2717 77.5472 0.86326C77.9965 0.4344 78.6091 0.219969 79.3852 0.219969C80.1612 0.219969 80.7841 0.4344 81.2538 0.86326C81.7439 1.2717 81.989 1.77204 81.989 2.36428C81.989 2.95651 81.7439 3.45685 81.2538 3.86529C80.7841 4.25331 80.1612 4.44732 79.3852 4.44732C78.6091 4.44732 77.9965 4.25331 77.5472 3.86529C77.1183 3.45685 76.9039 2.95651 76.9039 2.36428ZM94.7493 22V13.3002C94.7493 12.0545 94.5655 11.1559 94.1979 10.6045C93.8507 10.0531 93.2483 9.77745 92.3905 9.77745C91.6349 9.77745 90.9916 10.0021 90.4607 10.4514C89.9501 10.8802 89.5825 11.4214 89.3579 12.0749V22H85.3756V6.68352H88.5308L88.9903 8.7053H89.1128C89.5825 8.05179 90.2054 7.47998 90.9814 6.98985C91.7575 6.49973 92.7581 6.25466 93.9835 6.25466C94.7391 6.25466 95.413 6.35677 96.0052 6.56099C96.5975 6.76521 97.0978 7.10217 97.5062 7.57188C97.9147 8.04158 98.221 8.68488 98.4252 9.50175C98.6295 10.2982 98.7316 11.2887 98.7316 12.4732V22H94.7493ZM115.026 22C115.026 24.226 114.423 25.8598 113.219 26.9013C112.014 27.9632 110.329 28.4942 108.164 28.4942C106.694 28.4942 105.53 28.3921 104.672 28.1879C103.835 27.9836 103.202 27.7692 102.773 27.5446L103.6 24.3894C104.07 24.5732 104.611 24.757 105.223 24.9408C105.856 25.1246 106.632 25.2165 107.551 25.2165C108.94 25.2165 109.88 24.9101 110.37 24.2975C110.88 23.7052 111.136 22.8679 111.136 21.7856V20.8053H111.013C110.298 21.7651 109.032 22.2451 107.214 22.2451C105.234 22.2451 103.753 21.6324 102.773 20.4071C101.813 19.1818 101.333 17.2621 101.333 14.6481C101.333 11.9115 101.986 9.83872 103.293 8.4296C104.6 7.02048 106.5 6.31593 108.991 6.31593C110.298 6.31593 111.462 6.40783 112.483 6.59162C113.525 6.77542 114.372 6.98985 115.026 7.23492V22ZM108.287 19.0592C109.063 19.0592 109.655 18.8856 110.063 18.5385C110.492 18.1913 110.819 17.6705 111.044 16.9762V10.0838C110.411 9.81829 109.624 9.68555 108.685 9.68555C107.664 9.68555 106.867 10.0736 106.296 10.8496C105.724 11.6052 105.438 12.8203 105.438 14.4949C105.438 15.9857 105.683 17.1191 106.173 17.8952C106.663 18.6712 107.368 19.0592 108.287 19.0592Z" fill="black"/>
</svg>
